<svg version="1.1" id="Layer_1" xmlns="http://www.w3.org/2000/svg" xmlns:xlink="http://www.w3.org/1999/xlink" x="0px" y="0px"
	 width="100%" viewBox="0 0 1080 1080" enable-background="new 0 0 1080 1080" xml:space="preserve">
<path fill="#0E67B4" opacity="1.000000" stroke="none" 
	d="
M569.000000,1081.000000 
	C379.355164,1081.000000 190.210327,1081.000000 1.032743,1081.000000 
	C1.032743,721.063354 1.032743,361.126740 1.032743,1.095056 
	C360.895081,1.095056 720.790161,1.095056 1080.842651,1.095056 
	C1080.842651,360.999939 1080.842651,720.999939 1080.842651,1081.000000 
	C910.459656,1081.000000 739.979797,1081.000000 569.000000,1081.000000 
M750.500000,157.980331 
	C591.758301,157.980331 433.016602,157.980331 274.143066,157.980331 
	C274.143066,413.397858 274.143066,668.161682 274.143066,923.226501 
	C451.851196,923.226501 629.396545,923.226501 807.265198,923.226501 
	C807.265198,668.041870 807.265198,413.175293 807.265198,157.980331 
	C788.463684,157.980331 769.981873,157.980331 750.500000,157.980331 
z"/>
<path fill="#EEEDE6" opacity="1.000000" stroke="none" 
	d="
M751.000000,157.980331 
	C769.981873,157.980331 788.463684,157.980331 807.265198,157.980331 
	C807.265198,413.175293 807.265198,668.041870 807.265198,923.226501 
	C629.396545,923.226501 451.851196,923.226501 274.143066,923.226501 
	C274.143066,668.161682 274.143066,413.397858 274.143066,157.980331 
	C433.016602,157.980331 591.758301,157.980331 751.000000,157.980331 
M727.499023,911.873901 
	C747.995605,911.873779 768.492126,911.876160 788.988708,911.872009 
	C795.950867,911.870605 795.958496,911.863037 795.958496,904.783447 
	C795.959839,662.324036 795.959717,419.864594 795.958740,177.405182 
	C795.958740,170.133484 795.952637,170.127350 788.677490,170.127289 
	C623.538452,170.126129 458.399414,170.126114 293.260376,170.127365 
	C286.046906,170.127426 286.041199,170.134048 286.041168,177.466370 
	C286.040161,419.759155 286.038116,662.051941 286.049927,904.344727 
	C286.050323,912.593567 285.253143,911.863586 293.571411,911.864319 
	C437.880585,911.877380 582.189758,911.873901 727.499023,911.873901 
z"/>
<path fill="#0F67B4" opacity="1.000000" stroke="none" 
	d="
M726.999023,911.873962 
	C582.189758,911.873901 437.880585,911.877380 293.571411,911.864319 
	C285.253143,911.863586 286.050323,912.593567 286.049927,904.344727 
	C286.038116,662.051941 286.040161,419.759155 286.041168,177.466370 
	C286.041199,170.134048 286.046906,170.127426 293.260376,170.127365 
	C458.399414,170.126114 623.538452,170.126129 788.677490,170.127289 
	C795.952637,170.127350 795.958740,170.133484 795.958740,177.405182 
	C795.959717,419.864594 795.959839,662.324036 795.958496,904.783447 
	C795.958496,911.863037 795.950867,911.870605 788.988708,911.872009 
	C768.492126,911.876160 747.995605,911.873779 726.999023,911.873962 
M441.219238,757.338867 
	C450.633667,769.429443 459.938202,781.608765 469.557983,793.533630 
	C471.415985,795.836853 474.324127,798.202820 477.070374,798.678772 
	C481.893066,799.514587 486.964996,798.912231 492.287109,798.912231 
	C492.287109,752.501404 492.287109,706.451477 492.287109,660.225586 
	C484.672089,660.225586 477.309387,660.225586 469.910583,660.225586 
	C469.910583,691.705505 469.910583,722.742920 469.910583,755.293823 
	C468.191132,753.273804 467.231415,752.223267 466.356903,751.106018 
	C461.531860,744.941711 456.739044,738.752197 451.914093,732.587769 
	C434.357758,710.157654 416.849335,687.689392 399.147461,665.374634 
	C397.310150,663.058533 394.494751,660.547668 391.800781,660.091919 
	C386.797882,659.245605 381.549652,659.849304 376.289001,659.849304 
	C376.289001,706.386719 376.289001,752.572021 376.289001,798.775757 
	C383.800812,798.775757 390.910370,798.775757 398.724243,798.775757 
	C398.724243,767.111938 398.724243,735.689697 398.724243,704.267395 
	C399.063141,704.190979 399.402069,704.114563 399.740967,704.038147 
	C413.430450,721.610779 427.119965,739.183350 441.219238,757.338867 
M556.887939,731.475586 
	C557.458130,751.348022 562.954346,769.365295 577.920959,783.233459 
	C596.111023,800.088623 617.987366,802.919556 641.367126,798.369263 
	C654.435608,795.825745 665.009705,788.962524 673.326355,778.796082 
	C673.111633,778.152039 673.090393,777.766602 672.890198,777.537598 
	C670.810303,775.158020 668.707153,772.798706 666.599731,770.443298 
	C661.130920,764.330994 659.923828,764.228516 653.506714,769.308167 
	C632.039673,786.301331 598.648743,777.964172 587.746277,752.989319 
	C582.973511,742.056213 582.677368,730.654114 583.903198,719.138306 
	C586.412781,695.561707 603.048340,680.866821 626.602722,680.976501 
	C636.276123,681.021545 644.785645,684.255127 652.771973,689.517761 
	C658.295349,693.157349 660.633606,692.541199 664.514587,687.290955 
	C666.098328,685.148438 667.386719,682.739990 669.206055,680.830383 
	C672.006775,677.890625 671.223206,676.005798 668.379944,673.596619 
	C645.507874,654.215515 607.038452,653.311340 583.376770,671.754700 
	C564.235046,686.674988 556.856140,706.913818 556.887939,731.475586 
M588.725769,369.882874 
	C585.310791,368.332458 581.895874,366.782043 577.866699,364.952789 
	C577.866699,374.263885 577.757446,382.742706 577.992249,391.212006 
	C578.024963,392.392059 579.514282,394.060822 580.729248,394.597046 
	C592.600159,399.835999 604.561401,404.869904 616.485840,409.988037 
	C623.836731,413.143188 631.168396,416.343170 639.540710,419.970093 
	C619.265015,428.686005 600.215088,436.842651 581.214905,445.113739 
	C579.912842,445.680573 578.059204,447.076416 578.027283,448.133972 
	C577.767700,456.742981 577.881287,465.363190 577.881287,474.570679 
	C579.697998,473.957458 580.949219,473.654053 582.099548,473.129486 
	C610.229919,460.302063 638.277832,447.289856 666.529846,434.736755 
	C672.373779,432.140198 675.237854,429.049927 674.105286,422.527527 
	C673.599854,419.616669 673.783264,416.521454 674.080750,413.552673 
	C674.434814,410.019104 673.039490,408.288086 669.813416,406.834412 
	C642.962280,394.735077 616.198120,382.442596 588.725769,369.882874 
M501.297455,473.753204 
	C504.445038,475.112122 504.099731,472.835999 504.104614,471.015411 
	C504.123505,464.015839 503.972870,457.012024 504.180420,450.018555 
	C504.264984,447.169159 503.083618,445.902985 500.639893,444.857819 
	C486.715118,438.902313 472.838501,432.833618 458.965088,426.758728 
	C454.196991,424.670898 449.485291,422.454285 444.012360,419.961548 
	C446.347931,418.778809 447.644714,418.038879 449.005432,417.445679 
	C466.075470,410.003662 483.170471,402.618530 500.203979,395.094147 
	C501.695221,394.435425 503.869141,392.937683 503.911499,391.764099 
	C504.226379,383.044861 504.082306,374.309052 504.082306,365.318329 
	C502.927521,365.614807 502.428986,365.665527 501.998810,365.864258 
	C471.651520,379.884705 441.291077,393.877319 411.025116,408.071289 
	C409.585175,408.746613 408.277344,411.153381 408.131134,412.858643 
	C407.734039,417.491028 408.141998,422.186249 407.938446,426.843750 
	C407.820099,429.550629 408.700531,430.984558 411.236206,432.146545 
	C441.046844,445.807831 470.800568,459.593231 501.297455,473.753204 
M513.163879,462.627289 
	C511.525208,468.305939 509.886505,473.984589 508.127075,480.081573 
	C515.834778,480.081573 523.001770,479.772369 530.124756,480.197845 
	C534.378967,480.451965 535.761963,478.760681 536.864624,474.982941 
	C547.725220,437.776550 558.784546,400.628143 569.771606,363.458618 
	C572.142761,355.436798 574.450134,347.396118 576.894226,338.995300 
	C569.279053,338.995300 562.281494,339.238007 555.311707,338.903625 
	C551.177246,338.705322 549.333496,339.893555 548.112305,344.100311 
	C536.703613,383.399506 525.023010,422.619751 513.163879,462.627289 
M648.950073,636.414246 
	C654.563904,631.401184 660.177795,626.388062 665.791687,621.375000 
	C655.566772,620.335083 645.867798,620.289490 636.170593,620.401062 
	C635.128113,620.413086 633.756226,621.069824 633.111328,621.882935 
	C625.947693,630.915405 618.897278,640.037781 611.541260,649.489197 
	C628.158630,652.272949 633.222473,650.829285 644.367554,640.575623 
	C645.711609,639.339050 647.073120,638.121460 648.950073,636.414246 
M519.404419,795.033752 
	C524.880310,800.335022 530.574463,801.618225 536.611633,798.911621 
	C542.001648,796.495178 545.413330,790.832214 545.092224,784.834473 
	C544.754211,778.519714 540.814087,773.336853 534.884399,771.406921 
	C529.488953,769.650940 523.048645,771.505859 519.502380,775.837036 
	C515.294922,780.975769 515.098389,787.603882 519.404419,795.033752 
M706.323975,772.926697 
	C705.420837,772.506592 704.543945,772.013489 703.610352,771.678223 
	C697.144348,769.356567 690.129272,771.684814 686.540344,777.310669 
	C682.760803,783.235107 683.616760,791.331421 688.531982,796.148254 
	C693.262207,800.783997 700.702026,801.467834 706.501221,797.978149 
	C713.628723,793.689026 716.823730,780.833130 706.323975,772.926697 
z"/>
<path fill="#F2F0E7" opacity="1.000000" stroke="none" 
	d="
M441.014343,757.047424 
	C427.119965,739.183350 413.430450,721.610779 399.740967,704.038147 
	C399.402069,704.114563 399.063141,704.190979 398.724243,704.267395 
	C398.724243,735.689697 398.724243,767.111938 398.724243,798.775757 
	C390.910370,798.775757 383.800812,798.775757 376.289001,798.775757 
	C376.289001,752.572021 376.289001,706.386719 376.289001,659.849304 
	C381.549652,659.849304 386.797882,659.245605 391.800781,660.091919 
	C394.494751,660.547668 397.310150,663.058533 399.147461,665.374634 
	C416.849335,687.689392 434.357758,710.157654 451.914093,732.587769 
	C456.739044,738.752197 461.531860,744.941711 466.356903,751.106018 
	C467.231415,752.223267 468.191132,753.273804 469.910583,755.293823 
	C469.910583,722.742920 469.910583,691.705505 469.910583,660.225586 
	C477.309387,660.225586 484.672089,660.225586 492.287109,660.225586 
	C492.287109,706.451477 492.287109,752.501404 492.287109,798.912231 
	C486.964996,798.912231 481.893066,799.514587 477.070374,798.678772 
	C474.324127,798.202820 471.415985,795.836853 469.557983,793.533630 
	C459.938202,781.608765 450.633667,769.429443 441.014343,757.047424 
z"/>
<path fill="#F3F1E7" opacity="1.000000" stroke="none" 
	d="
M556.887817,730.981873 
	C556.856140,706.913818 564.235046,686.674988 583.376770,671.754700 
	C607.038452,653.311340 645.507874,654.215515 668.379944,673.596619 
	C671.223206,676.005798 672.006775,677.890625 669.206055,680.830383 
	C667.386719,682.739990 666.098328,685.148438 664.514587,687.290955 
	C660.633606,692.541199 658.295349,693.157349 652.771973,689.517761 
	C644.785645,684.255127 636.276123,681.021545 626.602722,680.976501 
	C603.048340,680.866821 586.412781,695.561707 583.903198,719.138306 
	C582.677368,730.654114 582.973511,742.056213 587.746277,752.989319 
	C598.648743,777.964172 632.039673,786.301331 653.506714,769.308167 
	C659.923828,764.228516 661.130920,764.330994 666.599731,770.443298 
	C668.707153,772.798706 670.810303,775.158020 672.890198,777.537598 
	C673.090393,777.766602 673.111633,778.152039 673.326355,778.796082 
	C665.009705,788.962524 654.435608,795.825745 641.367126,798.369263 
	C617.987366,802.919556 596.111023,800.088623 577.920959,783.233459 
	C562.954346,769.365295 557.458130,751.348022 556.887817,730.981873 
z"/>
<path fill="#F4F1E7" opacity="1.000000" stroke="none" 
	d="
M589.066772,370.045654 
	C616.198120,382.442596 642.962280,394.735077 669.813416,406.834412 
	C673.039490,408.288086 674.434814,410.019104 674.080750,413.552673 
	C673.783264,416.521454 673.599854,419.616669 674.105286,422.527527 
	C675.237854,429.049927 672.373779,432.140198 666.529846,434.736755 
	C638.277832,447.289856 610.229919,460.302063 582.099548,473.129486 
	C580.949219,473.654053 579.697998,473.957458 577.881287,474.570679 
	C577.881287,465.363190 577.767700,456.742981 578.027283,448.133972 
	C578.059204,447.076416 579.912842,445.680573 581.214905,445.113739 
	C600.215088,436.842651 619.265015,428.686005 639.540710,419.970093 
	C631.168396,416.343170 623.836731,413.143188 616.485840,409.988037 
	C604.561401,404.869904 592.600159,399.835999 580.729248,394.597046 
	C579.514282,394.060822 578.024963,392.392059 577.992249,391.212006 
	C577.757446,382.742706 577.866699,374.263885 577.866699,364.952789 
	C581.895874,366.782043 585.310791,368.332458 589.066772,370.045654 
z"/>
<path fill="#F4F1E7" opacity="1.000000" stroke="none" 
	d="
M500.933411,473.549561 
	C470.800568,459.593231 441.046844,445.807831 411.236206,432.146545 
	C408.700531,430.984558 407.820099,429.550629 407.938446,426.843750 
	C408.141998,422.186249 407.734039,417.491028 408.131134,412.858643 
	C408.277344,411.153381 409.585175,408.746613 411.025116,408.071289 
	C441.291077,393.877319 471.651520,379.884705 501.998810,365.864258 
	C502.428986,365.665527 502.927521,365.614807 504.082306,365.318329 
	C504.082306,374.309052 504.226379,383.044861 503.911499,391.764099 
	C503.869141,392.937683 501.695221,394.435425 500.203979,395.094147 
	C483.170471,402.618530 466.075470,410.003662 449.005432,417.445679 
	C447.644714,418.038879 446.347931,418.778809 444.012360,419.961548 
	C449.485291,422.454285 454.196991,424.670898 458.965088,426.758728 
	C472.838501,432.833618 486.715118,438.902313 500.639893,444.857819 
	C503.083618,445.902985 504.264984,447.169159 504.180420,450.018555 
	C503.972870,457.012024 504.123505,464.015839 504.104614,471.015411 
	C504.099731,472.835999 504.445038,475.112122 500.933411,473.549561 
z"/>
<path fill="#F4F1E7" opacity="1.000000" stroke="none" 
	d="
M513.292480,462.245056 
	C525.023010,422.619751 536.703613,383.399506 548.112305,344.100311 
	C549.333496,339.893555 551.177246,338.705322 555.311707,338.903625 
	C562.281494,339.238007 569.279053,338.995300 576.894226,338.995300 
	C574.450134,347.396118 572.142761,355.436798 569.771606,363.458618 
	C558.784546,400.628143 547.725220,437.776550 536.864624,474.982941 
	C535.761963,478.760681 534.378967,480.451965 530.124756,480.197845 
	C523.001770,479.772369 515.834778,480.081573 508.127075,480.081573 
	C509.886505,473.984589 511.525208,468.305939 513.292480,462.245056 
z"/>
<path fill="#F0EFE6" opacity="1.000000" stroke="none" 
	d="
M648.688293,636.654663 
	C647.073120,638.121460 645.711609,639.339050 644.367554,640.575623 
	C633.222473,650.829285 628.158630,652.272949 611.541260,649.489197 
	C618.897278,640.037781 625.947693,630.915405 633.111328,621.882935 
	C633.756226,621.069824 635.128113,620.413086 636.170593,620.401062 
	C645.867798,620.289490 655.566772,620.335083 665.791687,621.375000 
	C660.177795,626.388062 654.563904,631.401184 648.688293,636.654663 
z"/>
<path fill="#F1EFE7" opacity="1.000000" stroke="none" 
	d="
M519.177551,794.739441 
	C515.098389,787.603882 515.294922,780.975769 519.502380,775.837036 
	C523.048645,771.505859 529.488953,769.650940 534.884399,771.406921 
	C540.814087,773.336853 544.754211,778.519714 545.092224,784.834473 
	C545.413330,790.832214 542.001648,796.495178 536.611633,798.911621 
	C530.574463,801.618225 524.880310,800.335022 519.177551,794.739441 
z"/>
<path fill="#F1EFE7" opacity="1.000000" stroke="none" 
	d="
M706.645142,773.127014 
	C716.823730,780.833130 713.628723,793.689026 706.501221,797.978149 
	C700.702026,801.467834 693.262207,800.783997 688.531982,796.148254 
	C683.616760,791.331421 682.760803,783.235107 686.540344,777.310669 
	C690.129272,771.684814 697.144348,769.356567 703.610352,771.678223 
	C704.543945,772.013489 705.420837,772.506592 706.645142,773.127014 
z"/>
</svg>